<?xml version="1.0" encoding="UTF-8" standalone="no"?>
<svg
   width="32"
   height="32"
   version="1.1"
   viewBox="0 0 32 32"
   id="svg33"
   sodipodi:docname="compass.svg"
   inkscape:version="1.1.1 (3bf5ae0d25, 2021-09-20, custom)"
   xmlns:inkscape="http://www.inkscape.org/namespaces/inkscape"
   xmlns:sodipodi="http://sodipodi.sourceforge.net/DTD/sodipodi-0.dtd"
   xmlns:xlink="http://www.w3.org/1999/xlink"
   xmlns="http://www.w3.org/2000/svg"
   xmlns:svg="http://www.w3.org/2000/svg">
  <sodipodi:namedview
     id="namedview35"
     pagecolor="#c8c8c8"
     bordercolor="#999999"
     borderopacity="1"
     inkscape:pageshadow="0"
     inkscape:pageopacity="0"
     inkscape:pagecheckerboard="0"
     showgrid="true"
     inkscape:zoom="18.590909"
     inkscape:cx="12.506112"
     inkscape:cy="14.469438"
     inkscape:window-width="1920"
     inkscape:window-height="965"
     inkscape:window-x="0"
     inkscape:window-y="40"
     inkscape:window-maximized="1"
     inkscape:current-layer="svg33"
     inkscape:snap-bbox="true"
     inkscape:snap-bbox-edge-midpoints="true"
     inkscape:bbox-nodes="true"
     inkscape:snap-nodes="false">
    <inkscape:grid
       type="xygrid"
       id="grid852" />
  </sodipodi:namedview>
  <defs
     id="defs16">
    <linearGradient
       id="linearGradient860">
      <stop
         stop-color="#4deb47"
         offset="0"
         id="stop2" />
      <stop
         stop-color="#ffa000"
         offset="1"
         id="stop4" />
    </linearGradient>
    <linearGradient
       id="linearGradient11">
      <stop
         stop-color="#5df240"
         offset="0"
         id="stop7" />
      <stop
         stop-color="#fff400"
         offset="1"
         id="stop9" />
    </linearGradient>
    <style
       id="current-color-scheme"
       type="text/css">.ColorScheme-Text { color:#565656; } .ColorScheme-Highlight { color:#5294e2; }</style>
    <linearGradient
       id="linearGradient848"
       x2="22"
       y1="11"
       y2="11"
       gradientTransform="matrix(1.27272,0,0,1.27272,2,2.0546)"
       gradientUnits="userSpaceOnUse"
       xlink:href="#linearGradient860" />
    <linearGradient
       id="linearGradient877"
       x1="3"
       x2="19"
       y1="11"
       y2="11"
       gradientUnits="userSpaceOnUse"
       xlink:href="#linearGradient860"
       gradientTransform="translate(-24,10)" />
  </defs>
  <g
     id="22-22-compass">
    <rect
       style="opacity:0.00100002;fill:#000000;fill-opacity:1;fill-rule:evenodd;stroke-width:0.175709;stroke-linecap:round;stroke-linejoin:round;paint-order:stroke fill markers"
       id="rect35320"
       width="22"
       height="22"
       x="-24"
       y="10"
       ry="0" />
    <path
       id="rect1109"
       style="fill:#fbfbfb;fill-opacity:1;fill-rule:evenodd;stroke-width:11.25;stroke-linecap:round;stroke-linejoin:round;paint-order:stroke fill markers"
       d="m -13,12 c -4.970565,0 -9,4.029435 -9,9 0,4.970587 4.029435,9 9,9 4.9705875,0 9,-4.029413 9,-9 0,-4.970565 -4.0294125,-9 -9,-9 z m 0,1.125 v 1.6875 c 0,0.310658 0.251887,0.5625 0.5625,0.5625 0.310612,0 0.5625,-0.251842 0.5625,-0.5625 v -1.608399 c 3.4489125,0.493324 6.1775859,3.221998 6.6708984,6.670899 H -6.8125 c -0.3106125,0 -0.5625,0.251842 -0.5625,0.5625 0,0.310658 0.2518875,0.5625 0.5625,0.5625 h 1.6875 c 0,3.967312 -2.9336625,7.250049 -6.75,7.795899 V 27.1875 c 0,-0.310612 -0.251888,-0.5625 -0.5625,-0.5625 -0.310613,0 -0.5625,0.251888 -0.5625,0.5625 v 1.6875 c -4.349239,0 -7.875,-3.52575 -7.875,-7.875 h 1.6875 c 0.310658,0 0.5625,-0.251842 0.5625,-0.5625 0,-0.310658 -0.251842,-0.5625 -0.5625,-0.5625 h -1.608399 c 0.545885,-3.816326 3.82862,-6.75 7.795899,-6.75 z m -3.427734,3.379394 c -0.736302,0.03731 -1.314091,0.824118 -0.9646,1.593018 l 1.669922,3.671631 c 0.393941,0.8667 1.086691,1.559394 1.953369,1.953369 l 3.671631,1.669922 c 0.9463499,0.4302 1.919946,-0.543396 1.489746,-1.489746 l -1.669922,-3.671631 c -0.393975,-0.866666 -1.086669,-1.559428 -1.953369,-1.953369 l -3.671631,-1.669922 c -0.177436,-0.08065 -0.355231,-0.11188 -0.525146,-0.103272 z m 0.06152,1.129395 3.669434,1.667724 c 0.619088,0.281385 1.113902,0.776211 1.395265,1.395265 l 1.6677245,3.669433 -3.6694335,-1.667724 c -0.619054,-0.281363 -1.11388,-0.776177 -1.395265,-1.395265 z" />
  </g>
  <g
     id="compass">
    <rect
       style="opacity:0.00100002;fill:#48fcfe;fill-rule:evenodd;stroke-width:1.03873;stroke-linecap:round;stroke-linejoin:round;paint-order:stroke fill markers"
       id="rect876"
       width="32"
       height="32"
       x="0"
       y="0" />
    <path
       id="rect973"
       style="fill:#fbfbfb;fill-opacity:1;fill-rule:evenodd;stroke:#fbfbfb;stroke-width:0.401228;stroke-linecap:round;stroke-linejoin:round;stroke-miterlimit:4;stroke-dasharray:none;stroke-opacity:1;paint-order:stroke fill markers"
       d="m 16,1.2006161 c -0.704672,3.85e-5 -1.408444,0.050407 -2.105939,0.1507191 C 13.196746,1.4513974 12.507467,1.6011213 11.83148,1.7993634 11.154709,1.9982432 10.493024,2.245254 9.8514838,2.5385069 9.2108673,2.831233 8.5919651,3.1693179 7.9994959,3.5501834 7.4064238,3.9312484 6.8413367,4.3542014 6.3085506,4.8158116 5.7760716,5.2772231 5.277223,5.7760717 4.8158116,6.3085508 4.3542013,6.8413368 3.9312483,7.4064239 3.5501833,7.999496 3.1693178,8.5919651 2.8312329,9.2108674 2.5385068,9.851484 2.2452539,10.493024 1.998243,11.15471 1.7993634,11.83148 1.6011212,12.507467 1.4513976,13.196747 1.3513352,13.894061 1.2510222,14.591556 1.2006545,15.295328 1.2006161,16 c 3.84e-5,0.704672 0.050406,1.408444 0.1507191,2.105939 0.1000632,0.697315 0.249786,1.386594 0.4480282,2.062581 0.1988796,0.676771 0.4458905,1.338456 0.7391434,1.979996 0.2927261,0.640616 0.630811,1.259519 1.0116765,1.851987 0.381065,0.593073 0.8040179,1.158161 1.2656283,1.690947 0.4614115,0.532478 0.96026,1.031328 1.492739,1.492738 0.5327861,0.46161 1.0978732,0.884564 1.6909453,1.265629 0.5924692,0.380865 1.2113714,0.71895 1.8519879,1.011676 0.6415402,0.293254 1.3032252,0.540264 1.9799962,0.739143 0.675987,0.198243 1.365266,0.347966 2.062581,0.44803 0.697495,0.100311 1.401267,0.15068 2.105939,0.150718 0.704672,-3.8e-5 1.408444,-0.05041 2.105939,-0.150718 0.697314,-0.100067 1.386594,-0.249787 2.062581,-0.44803 0.67677,-0.198879 1.338456,-0.445889 1.979996,-0.739143 0.640616,-0.292726 1.259519,-0.630811 1.851987,-1.011676 0.593073,-0.381065 1.15816,-0.804019 1.690946,-1.265629 0.532479,-0.46141 1.031329,-0.96026 1.492739,-1.492738 0.46161,-0.532786 0.884564,-1.097874 1.265629,-1.690947 0.380865,-0.592468 0.71895,-1.211371 1.011676,-1.851987 0.293253,-0.64154 0.540264,-1.303225 0.739143,-1.979996 0.198243,-0.675987 0.347965,-1.365266 0.44803,-2.062581 0.100311,-0.697495 0.15068,-1.401267 0.150718,-2.105939 1.35e-4,-0.249939 -0.006,-0.499841 -0.01859,-0.749466 -0.01296,-0.249582 -0.03223,-0.498796 -0.05782,-0.747404 -0.02539,-0.248518 -0.05704,-0.496355 -0.09497,-0.743272 -0.03778,-0.247458 -0.08185,-0.493919 -0.132138,-0.739142 -0.05023,-0.24502 -0.106701,-0.488726 -0.169301,-0.730886 -0.06273,-0.241892 -0.131571,-0.482155 -0.206465,-0.72056 -0.07454,-0.238057 -0.155089,-0.47419 -0.241564,-0.708175 -0.08699,-0.234938 -0.179928,-0.46763 -0.278728,-0.697849 C 29.500985,9.933519 29.396346,9.7063347 29.285998,9.481912 29.176011,9.2574126 29.060354,9.0357361 28.939137,8.8170958 28.817982,8.5985114 28.69131,8.383031 28.559243,8.1708616 28.426904,7.9588796 28.289216,7.7502834 28.146313,7.5452738 28.003483,7.3399076 27.855469,7.1381957 27.702415,6.9403325 27.549729,6.7429893 27.392077,6.549539 27.229611,6.360167 27.06643,6.1701153 26.898452,5.9842373 26.725836,5.8027124 26.554132,5.6221074 26.377892,5.445868 26.197287,5.274163 26.015761,5.1015478 25.829886,4.9335691 25.639834,4.7703894 25.450461,4.6079224 25.25701,4.4502707 25.059668,4.2975854 24.861804,4.1445303 24.660092,3.9965164 24.454726,3.8536865 24.249716,3.7107837 24.04112,3.5730965 23.829139,3.4407573 23.616969,3.3086894 23.401488,3.1820171 23.182903,3.0608623 22.964264,2.9396456 22.742587,2.8239882 22.518089,2.7140017 22.293665,2.6036531 22.06648,2.4990107 21.836754,2.4001755 21.606535,2.3013748 21.373843,2.2084357 21.138905,2.1214484 20.904921,2.0349716 20.668787,1.9544246 20.43073,1.8798846 20.192325,1.8049906 19.952062,1.7361472 19.71017,1.6734201 19.46801,1.6108193 19.224304,1.5543675 18.979284,1.5041191 18.734061,1.4538292 18.4876,1.4097692 18.240142,1.3719818 17.993225,1.3340557 17.745388,1.3023876 17.49687,1.277008 17.248262,1.2514303 16.999048,1.2321541 16.749466,1.2191979 16.499841,1.2066762 16.249939,1.2004804 16,1.2006161 Z m 0.660687,0.9414786 c 6.915277,0.324186 12.506834,5.7098412 13.151796,12.5365313 h -0.92909 c -0.547313,0 -0.991031,0.443719 -0.991031,0.991031 0,0.547314 0.443718,0.99103 0.991031,0.99103 h 0.974513 c -0.334572,7.136871 -6.060348,12.862647 -13.197219,13.197219 v -0.974513 c 0,-0.547313 -0.443716,-0.991031 -0.99103,-0.991031 -0.547312,0 -0.991031,0.443718 -0.991031,0.991031 v 0.92909 C 7.8519357,29.167522 2.4662804,23.575964 2.1420947,16.660687 h 0.974513 c 0.5473261,0 0.9910301,-0.443716 0.9910301,-0.99103 0,-0.547312 -0.443704,-0.991031 -0.9910301,-0.991031 H 2.1875169 C 2.8118129,8.0707157 8.0707156,2.8118131 14.678626,2.187517 v 0.9290907 c 0,0.5473262 0.443719,0.9910303 0.991031,0.9910303 0.547314,0 0.99103,-0.4437041 0.99103,-0.9910303 z"
       sodipodi:nodetypes="cccccccccccccccccccccccccccccccccccccsccccccccccccccccccccccsccccccsssccsssccsssccsssc" />
    <path
       id="path1470"
       style="fill:#fbfbfb;fill-opacity:1;fill-rule:evenodd;stroke-width:9.99623;stroke-linecap:round;stroke-linejoin:round;paint-order:stroke fill markers"
       d="M 10.358393,9.0030649 C 9.4398568,9.0641461 8.7295344,10.015116 9.1010573,10.982003 l 2.2358707,5.82748 c 0.681075,1.772661 2.081464,3.172818 3.854009,3.854009 l 5.82748,2.235871 c 1.178703,0.452844 2.333381,-0.701834 1.880537,-1.880538 l -2.235871,-5.82748 C 19.982009,13.418801 18.581735,12.01841 16.809075,11.337337 l -5.82748,-2.2358719 c -0.147338,-0.05661 -0.293755,-0.08902 -0.437335,-0.0984 -0.06282,-0.00411 -0.124631,-0.00407 -0.185867,-2e-7 z m 0.608624,1.9643601 5.213389,2.002627 c 1.310252,0.503342 2.346503,1.539827 2.849962,2.849962 l 2.002626,5.213389 -5.215211,-2.002626 c -1.310137,-0.50346 -2.344797,-1.53971 -2.84814,-2.849963 z"
       sodipodi:nodetypes="cccccccccscccccccc" />
  </g>
</svg>
